<!DOCTYPE svg PUBLIC "-//W3C//DTD SVG 1.1//EN" "http://www.w3.org/Graphics/SVG/1.1/DTD/svg11.dtd">
<!-- Uploaded to: SVG Repo, www.svgrepo.com, Transformed by: SVG Repo Mixer Tools -->
<svg width="64px" height="64px" viewBox="-205 -205 2460.00 2460.00" data-name="Layer 3" id="Layer_3" xmlns="http://www.w3.org/2000/svg" fill="#000000">
<g id="SVGRepo_bgCarrier" stroke-width="0">
<path transform="translate(-205, -205), scale(153.75)" fill="#ffffff" d="M9.166.33a2.25 2.25 0 00-2.332 0l-5.25 3.182A2.25 2.25 0 00.5 5.436v5.128a2.25 2.25 0 001.084 1.924l5.25 3.182a2.25 2.25 0 002.332 0l5.25-3.182a2.25 2.25 0 001.084-1.924V5.436a2.25 2.25 0 00-1.084-1.924L9.166.33z" strokewidth="0"/>
</g>
<g id="SVGRepo_tracerCarrier" stroke-linecap="round" stroke-linejoin="round"/>
<g id="SVGRepo_iconCarrier">
<defs>
<style>.cls-1{fill:#000000;}</style>
</defs>
<title/>
<path class="cls-1" d="M1582.2,1488.7a44.9,44.9,0,0,1-36.4-18.5l-75.7-103.9A431.7,431.7,0,0,0,1121.4,1189h-60.1v64c0,59.8-33.5,112.9-87.5,138.6a152.1,152.1,0,0,1-162.7-19.4l-331.5-269a153.5,153.5,0,0,1,0-238.4l331.5-269a152.1,152.1,0,0,1,162.7-19.4c54,25.7,87.5,78.8,87.5,138.6v98.3l161,19.6a460.9,460.9,0,0,1,404.9,457.4v153.4a45,45,0,0,1-45,45Z"/>
</g>
</svg>